<?xml version="1.0" standalone="no"?>
<!DOCTYPE svg PUBLIC "-//W3C//DTD SVG 20010904//EN"
 "http://www.w3.org/TR/2001/REC-SVG-20010904/DTD/svg10.dtd">
<svg version="1.0" xmlns="http://www.w3.org/2000/svg"
 width="200.000000pt" height="200.000000pt" viewBox="0 0 200.000000 200.000000"
 preserveAspectRatio="xMidYMid meet">
<metadata>
Created by potrace 1.11, written by Peter Selinger 2001-2013
</metadata>
<g transform="translate(0.000000,200.000000) scale(0.100000,-0.100000)"
fill="#000000" stroke="none">
<path d="M884 1789 c-17 -19 -19 -34 -16 -145 l4 -124 -81 0 c-110 0 -142 -14
-168 -76 -32 -74 -47 -319 -40 -634 7 -275 18 -390 42 -427 32 -49 45 -51 307
-59 227 -6 247 -8 251 -25 3 -10 17 -24 31 -30 22 -10 29 -9 46 6 23 21 26 41
8 48 -7 3 1 6 18 6 64 2 104 77 115 221 11 138 10 617 0 747 -15 174 -60 223
-205 223 l-79 0 6 126 c7 163 6 164 -126 164 -83 0 -96 -3 -113 -21z m183 -38
c24 -15 33 -55 33 -140 l0 -91 -105 0 -105 0 0 91 c0 76 3 96 21 120 19 27 25
29 83 28 35 -1 68 -4 73 -8z m-38 -685 l175 -141 -85 -16 c-60 -11 -83 -19
-81 -29 2 -7 25 -60 53 -118 27 -58 49 -108 49 -112 0 -8 -51 -33 -56 -27 -2
2 -28 56 -59 120 -30 64 -59 117 -63 117 -5 0 -19 -12 -33 -26 -13 -14 -41
-39 -61 -56 l-38 -30 0 237 c0 186 3 235 13 229 6 -4 90 -71 186 -148z"/>
<path d="M710 306 c0 -17 27 -46 41 -46 23 0 49 22 49 40 0 17 -7 20 -45 20
-32 0 -45 -4 -45 -14z"/>
</g>
</svg>
